<svg height="100pt" preserveAspectRatio="xMidYMid meet" viewBox="0 0 300 100" width="300pt" xmlns="http://www.w3.org/2000/svg"><path d="m368 961c-163-53-280-178-323-346-42-163 10-340 134-458 281-268 727-123 807 262 42 204-73 424-273 519-73 34-85 37-183 39-81 2-118-1-162-16zm240-438-3-158-32-3-33-3v160 161h35 36zm-333 31c22-31 43-61 46-66 4-6 20 4 38 23l30 34 1-57c0-50-4-62-30-90l-30-33-23 26c-12 14-34 41-49 60l-27 34-1-62v-63h-35-35v125 125h38c33 0 41-6 77-56zm225-69v-125h-35-35v125 125h35 35zm306 66-59-60 57-63 58-63-43-3c-41-3-46 0-108 62l-66 66 60 60c57 57 62 60 109 60h50z" transform="matrix(.1 0 0 -.1 0 100)"/></svg>