/* XPM */
static char *f1b65814ef7c4fcb83fc03ac368cc3c4lSRd6hgitklsAMjR[] = {
/* columns rows colors chars-per-pixel */
"16 16 102 2 ",
"   c None",
".  c #2F273D",
"X  c #30283D",
"o  c #31293F",
"O  c #312A3E",
"+  c #332A3F",
"@  c #322A40",
"#  c #322B40",
"$  c #352C41",
"%  c #342D41",
"&  c #352D41",
"*  c #352E42",
"=  c #362E43",
"-  c #372F43",
";  c #362E44",
":  c #383045",
">  c #3A3149",
",  c #3C3549",
"<  c #3C334C",
"1  c #3E3453",
"2  c #423A4E",
"3  c #433756",
"4  c #423855",
"5  c #423758",
"6  c #44365D",
"7  c #453A5A",
"8  c #4B4555",
"9  c #4D4558",
"0  c #4D4659",
"q  c #4D475A",
"w  c #575065",
"e  c #5A5263",
"r  c #5D5767",
"t  c #5C5668",
"y  c #524371",
"u  c #514072",
"i  c #524273",
"p  c #544473",
"a  c #544477",
"s  c #564477",
"d  c #594D71",
"f  c #574778",
"g  c #5A4A79",
"h  c #5A4A7A",
"j  c #5A4A7B",
"k  c #5B4A7B",
"l  c #5C4B7C",
"z  c #5C4C7C",
"x  c #5D4D7C",
"c  c #5E5274",
"v  c #625B6D",
"b  c #625A70",
"n  c #60507F",
"m  c #686271",
"M  c #696473",
"N  c #5E4D80",
"B  c #645484",
"V  c #675A83",
"C  c #6C5D88",
"Z  c #6C5E89",
"A  c #6C5E8A",
"S  c #71638B",
"D  c #71638D",
"F  c #73678C",
"G  c #7F7B86",
"H  c #786B93",
"J  c #796B93",
"K  c #786A94",
"L  c #7A6D94",
"P  c #7C6F96",
"I  c #7D7095",
"U  c #7C7096",
"Y  c #7D7197",
"T  c #867A9E",
"R  c #8C8793",
"E  c #918D99",
"W  c #928F9A",
"Q  c #99959F",
"!  c #8C80A4",
"~  c #968BAB",
"^  c #988EAD",
"/  c #9A8FAF",
"(  c #9894A0",
")  c #9F99A4",
"_  c #9E94B4",
"`  c #A39FA9",
"'  c #A198B4",
"]  c #A39AB5",
"[  c #A399B6",
"{  c #A49AB7",
"}  c #A59CB6",
"|  c #A69CB8",
" . c #A69DB8",
".. c #A89EB9",
"X. c #AEACB4",
"o. c #AAA1BB",
"O. c #ABA3BC",
"+. c #AEA5BF",
"@. c #B1A8C1",
"#. c #B4ADC2",
"$. c #BCB6CA",
"%. c #C1BBCD",
/* pixels */
"                                ",
"                                ",
"      X.W T M w S T ^ ..$.      ",
"      e 4 i i a a i a g K       ",
"      8 7 N !  . ./ B k A       ",
"      q < g D U J ' O.f A       ",
"      q & d { } J l %.x A       ",
"      q & < V P L ' o.f A       ",
"      q & . ( #.{ ~ x z A       ",
"      q ; . Q b 6 p z l A       ",
"      v @ @ W r # > 4 3 U       ",
"      ` q # 2 , : : O c +.      ",
"        ` m # & & 1 U @.        ",
"            R t F _             ",
"                                ",
"                                "
};
