/* XPM */
static char *_7de7939089d43fc99f94757c1b5ade5eahxVZdi6uhcVXQE[] = {
/* columns rows colors chars-per-pixel */
"48 48 154 2 ",
"   c None",
".  c black",
"X  c #040404",
"o  c #060606",
"O  c #0C0802",
"+  c gray4",
"@  c #0B0B0B",
"#  c #0C0C0C",
"$  c #0E0E0E",
"%  c gray6",
"&  c #110B03",
"*  c #150E03",
"=  c #160F03",
"-  c #170F03",
";  c #1F1101",
":  c #1D1304",
">  c #111111",
",  c gray7",
"<  c #131313",
"1  c gray8",
"2  c #161616",
"3  c #191919",
"4  c gray10",
"5  c gray12",
"6  c #241805",
"7  c #261906",
"8  c #271A06",
"9  c #291C06",
"0  c #2B1D06",
"q  c #2C1D07",
"w  c #362103",
"e  c #202020",
"r  c gray13",
"t  c #222222",
"y  c #252525",
"u  c #282828",
"i  c #2A2A2A",
"p  c gray17",
"a  c #2C2C2C",
"s  c #2D2D2D",
"d  c #313131",
"f  c gray20",
"g  c #432D0A",
"h  c #49310B",
"j  c #593907",
"k  c #5B3B07",
"l  c #55390D",
"z  c #5D3C08",
"x  c #5D3D0A",
"c  c #5A3C0D",
"v  c #5E3E0D",
"b  c #5E3F0E",
"n  c #61410E",
"m  c #68430A",
"M  c #6B450A",
"N  c #6C450A",
"B  c #6C460B",
"V  c #6C470D",
"C  c #764D0C",
"Z  c #714B10",
"A  c #734D11",
"S  c #7E5413",
"D  c gray30",
"F  c #515151",
"G  c gray34",
"H  c #585858",
"J  c gray35",
"K  c #5A5A5A",
"L  c gray37",
"P  c #5F5F5F",
"I  c gray38",
"U  c gray40",
"Y  c #686868",
"T  c #6D6D6D",
"R  c #6F6F6F",
"E  c gray46",
"W  c #767676",
"Q  c gray47",
"!  c gray48",
"~  c #7C7C7C",
"^  c #82560F",
"/  c #825713",
"(  c #835813",
")  c #9A6614",
"_  c #A56E16",
"`  c #A36D18",
"'  c #A66F19",
"]  c #A87019",
"[  c #A97119",
"{  c #AB7319",
"}  c #B07518",
"|  c #BA7C1A",
" . c #C4831C",
".. c #CD891E",
"X. c #CE8A1E",
"o. c #CF8B1F",
"O. c #D08B1F",
"+. c #D18C1F",
"@. c #D48E20",
"#. c #D79020",
"$. c #838383",
"%. c #888888",
"&. c #898989",
"*. c gray54",
"=. c gray56",
"-. c gray58",
";. c gray60",
":. c #9A9A9A",
">. c #9B9B9B",
",. c gray61",
"<. c #9F9F9F",
"1. c gray63",
"2. c #A2A2A2",
"3. c gray64",
"4. c #A5A5A5",
"5. c gray65",
"6. c gray66",
"7. c gray67",
"8. c gray69",
"9. c #B4B4B4",
"0. c gray71",
"q. c #B9B9B9",
"w. c gray",
"e. c gray75",
"r. c #C0C0C0",
"t. c #C3C3C3",
"y. c #C5C5C5",
"u. c #C6C6C6",
"i. c gray78",
"p. c #C8C8C8",
"a. c gray79",
"s. c #CBCBCB",
"d. c #CDCDCD",
"f. c #CECECE",
"g. c gray81",
"h. c gray82",
"j. c #D2D2D2",
"k. c LightGray",
"l. c #D7D7D7",
"z. c #D8D8D8",
"x. c gray86",
"c. c #DDDDDD",
"v. c #DFDFDF",
"b. c gray88",
"n. c #E4E4E4",
"m. c #E6E6E6",
"M. c gray92",
"N. c #EEEEEE",
"B. c #EFEFEF",
"V. c #F4F4F4",
"C. c #FBFBFB",
"Z. c #FDFDFD",
"A. c #FEFEFE",
"S. c white",
/* pixels */
"                                        . . . . . . . . .                                       ",
"                                . . . . . . . . . . . . . . . . .                               ",
"                            . . . . . . . . . . . . . . . . . . . . .                           ",
"                        . . . . . . . . . . . . . . . . . . . . . . . . .                       ",
"                      . . . . . . . . . . . . . . . . . . . . . . . . . . .                     ",
"                  . . . . . . . . . . . . . . . . . . . . . . . . . . . . . . .                 ",
"                . . . . . . . . . . . . . . . . . . . . . . . . . . . . . . . . .               ",
"              . . . . . . . . . . . . . . . . . . . . . . . . . . . . . . . . . . .             ",
"            . . . . . . . . . . . . . . . . . . . . . . . . . . . . . . . . . . . . .           ",
"            . . . . . . . . . . . . . . . . . . . . . . . . . . . . . . . . . . . . .           ",
"          . . . . . . . . . . . . . . . . . . . . . . . . . . . . . . . . . . . . . . .         ",
"        . . . . . . . . . . . . . . . . . . . . . . . 9 o.o.+.c . . . . . . . . . . . . .       ",
"        . . . . . . . . . . . . . . . . . . . . . . . q +.#.#.n . . . . . . . . . . . . .       ",
"      . . . . . . . . . . . . . . . . . . . . . . . . q @.#.#.b . . . . . . . . . . . . . .     ",
"      . . . . . . P >.>.=.% . . . . . . . . g ( / S O 8 @.#.#.b . . . . . . 5 -.>.>.1.J . .     ",
"    . . . . . . . 4.S.S.S.>.. . . . . . . . A #.#.#.- 6 @.#.#.b . . . . . 2 k.S.S.S.c.r . . .   ",
"    . . . . . . . ,.S.S.S.S.P . . . . . . . V #.#.O.* 6 @.#.#.b . . . . < r.S.S.S.k.3 . . . .   ",
"    . . . . . . . ,.S.S.S.S.B.y . . . . r . N #.#.O.* 6 @.#.#.b . . . < r.S.S.S.c.r . . . . .   ",
"    . . . . . . . ,.S.S.S.S.S.u.o . . D 1.. M #.#.O.* 6 @.#.#.b . . % r.S.S.S.c.p . . . . . .   ",
"  . . . . . . . . ,.S.S.S.S.S.S.%.. r M.6.. M #.#.O.* 6 @.#.#.x . % 7.S.S.S.m.f . . . . . . . . ",
"  . . . . . . . . ,.S.S.C.S.S.S.S.G 0.S.1.. M #.#.O.* 6 @.#.#.k . %.S.S.S.S.J . . . . . . . . . ",
"  . . . . . . . . ,.S.S.c.%.S.S.S.S.S.S.1.. M #.#.+.* 6 @.#.#.x . y g.S.S.S.g.5 . . . . . . . . ",
"  . . . . . . . . ,.S.S.n.+ 4.S.S.S.S.S.6.. M #.#.O.* 6 +.#.#.b . . 3 k.S.S.S.g.2 . . . . . . . ",
"  . . . . . . . . ,.S.S.m.+ < l.S.S.S.S.E . M #.#.O.- 6 #.#.+.b . . . r l.S.S.S.r.< . . . . . . ",
"  . . . . . . . . ,.S.S.m.< . f V.S.S.1.o . N #.#.O.= 6 @.#.#.b . . . . p c.S.S.S.e.+ . . . . . ",
"  . . . . . . . . 1.S.S.B.< . . U S.u.+ . . A #.#.#.- 6 #.#.#.n . . . . . a n.S.S.S.0.< . . . . ",
"  . . . . . . . . ~ s.a.0.% . . . Q r . . . l { { ` & : ` { { h . . . . . . a r.a.u.k.R . . . . ",
"  . . . . . . . . . . . . . . . . . . . . . . . . . . . . . . . . . . . . . . . . . . . . . . . ",
"    . . . . . . . ^ o.w . ^ #.. . . _ #.w . . ^ #.+.} ; . ^ +.6 } | . . . . . #.^ . ^ #.. . .   ",
"    . . . . . . . ^ +._ ; o.#.. . ; #.#.) . . ^ #.N +.C . / +.}  .6 . . . . . #.^ . ^ #.. . .   ",
"    . . . . . . . ^ #.#.} #.#.. . ^ #.) +.6 . ^ #.z +.^ . ^ #.#.) . . . . . . #.^ . ^ #.. . .   ",
"    . . . . . . . ^ #._ #.) #.. . o.#.#.#.C . ^ #.#. .6 . ^ #._ @.k . . . . . #.^ . ^ #.. . .   ",
"      . . . . . . ^ #.; C m #.. m #.C k { | . ^ #.k #.k . ( #.. } +.6 . . . . #.^ . ^ #.. .     ",
"      . . . . . . . . . . . . . . . . . . . . . . . . . . . . . . . . . . . . . . . . . . .     ",
"        . . . . . . ~ ~ E a E E R %.%.%.R W W $.E E 5 %.%.~ %.I %.E J %.%.E R R %.$.R %.p       ",
"        . . . . . % $.$.F %.D %.%.%.%.$.5 $.$.W %.E r %.%.E %.R %.E Y %.E 5 %.=.%.%.5 E .       ",
"          . . . . . 5 R r . . . . . . . . . . . . . . . . . . . . . . . . . . . . . . .         ",
"            . . . . . . . . . . . . . . . . . . . . . . . . . . . . . . . . . . . . .           ",
"            . . . . . . . . . . . . . . . . . . . . . . . . . . . . . . . . . . . . .           ",
"              . . . . . . . . . . . . . . . . . . . . . . . . . . . . . . . . . . .             ",
"                . . . . . . . . . . . . . . . . . . . . . . . . . . . . . . . . .               ",
"                  . . . . . . . . . . . . . . . . . . . . . . . . . . . . . . .                 ",
"                      . . . . . . . . . . . . . . . . . . . . . . . . . . .                     ",
"                        . . . . . . . . . . . . . . . . . . . . . . . . .                       ",
"                            . . . . . . . . . . . . . . . . . . . . .                           ",
"                                . . . . . . . . . . . . . . . . .                               ",
"                                        . . . . . . . . .                                       ",
"                                                                                                "
};
