/* XPM */
static char *d0c82797f3ba42f4ce7a3ae93c2d465euLEIrfW0y8CcgCIa[] = {
/* columns rows colors chars-per-pixel */
"32 32 171 2 ",
"   c None",
".  c black",
"X  c #010000",
"o  c #010100",
"O  c #010101",
"+  c #020101",
"@  c #030200",
"#  c #020202",
"$  c #020203",
"%  c #060300",
"&  c #050400",
"*  c #070601",
"=  c #040404",
"-  c #060606",
";  c #0B0600",
":  c #0D0802",
">  c gray3",
",  c gray4",
"<  c #0A0B0A",
"1  c #0B0B0B",
"2  c #0C0C0C",
"3  c gray5",
"4  c #0E0E0E",
"5  c #120C03",
"6  c #1A1104",
"7  c #1F1605",
"8  c #101010",
"9  c #121213",
"0  c #181818",
"q  c #1A1819",
"w  c gray10",
"e  c #1A1A1B",
"r  c #1B1B1C",
"t  c #1E1E1E",
"y  c gray12",
"u  c #201605",
"i  c #221605",
"p  c #251904",
"a  c #271A04",
"s  c #241906",
"d  c #291B06",
"f  c #2B1C05",
"g  c #2B1D06",
"h  c #2B1C07",
"j  c #2E1E07",
"k  c #2E1F07",
"l  c #392608",
"z  c #24211B",
"x  c #201F21",
"c  c gray13",
"v  c gray14",
"b  c #232529",
"n  c #22262E",
"m  c #25282C",
"M  c #282828",
"N  c gray16",
"B  c gray20",
"V  c gray21",
"C  c #383637",
"Z  c #3D3C3B",
"A  c #3C3C3C",
"S  c #432C0B",
"D  c #452E0B",
"F  c #4A320A",
"G  c #4B320B",
"H  c #4F350B",
"J  c #50360C",
"K  c #50370C",
"L  c #5D3F0E",
"P  c #5E3F0E",
"I  c #60400E",
"U  c #62410E",
"Y  c #62410F",
"T  c #62420F",
"R  c #65440F",
"E  c #68440E",
"W  c #68450F",
"Q  c #3C434A",
"!  c gray25",
"~  c #414141",
"^  c #434343",
"/  c #454242",
"(  c #454342",
")  c #444444",
"_  c gray28",
"`  c #4A4B4B",
"'  c #565656",
"]  c #5A5A5A",
"[  c #606060",
"{  c gray38",
"}  c #626262",
"|  c #646464",
" . c gray40",
".. c #686868",
"X. c #6C6C6C",
"o. c #6D6D6D",
"O. c #6F6F6F",
"+. c #747474",
"@. c #7B7B7B",
"#. c #8A5508",
"$. c #8B5709",
"%. c #8C580A",
"&. c #97630F",
"*. c #946316",
"=. c #976515",
"-. c #996513",
";. c #9A6716",
":. c #A57019",
">. c #B87915",
",. c #B4791B",
"<. c #BB7C19",
"1. c #BC7E1A",
"2. c #BD7E1C",
"3. c #BF801C",
"4. c #C8851E",
"5. c #C9861E",
"6. c #DD9521",
"7. c #E19721",
"8. c #E19722",
"9. c #E49921",
"0. c #E99D23",
"q. c #EAA123",
"w. c #F4A324",
"e. c #F5A324",
"r. c #F4A424",
"t. c #F5A424",
"y. c #F6AC26",
"u. c #FCAA26",
"i. c #6C7480",
"p. c gray51",
"a. c #848484",
"s. c #8D9298",
"d. c #939393",
"f. c #91969C",
"g. c gray60",
"h. c gray64",
"j. c #A4A4A4",
"k. c #A6A6A5",
"l. c gray66",
"z. c #AAAAAA",
"x. c #AFAFAF",
"c. c #B1B1B1",
"v. c #B6B6B5",
"b. c #C1C1C1",
"n. c #C8C8C8",
"m. c gray80",
"M. c #CDCDCD",
"N. c #CCD0D7",
"B. c #D1D0D0",
"V. c gray82",
"C. c #D2D2D2",
"Z. c gray83",
"A. c #D5D4D5",
"S. c #D3D8DE",
"D. c #DADADA",
"F. c #DDDDDD",
"G. c #E4E4E4",
"H. c #E9E9E9",
"J. c #EAEAEA",
"K. c #ECECEC",
"L. c gray93",
"P. c gray94",
"I. c #F1F1F1",
"U. c gray95",
"Y. c #F4F4F4",
"T. c #F9F9F9",
"R. c gray98",
"E. c #FDFDFD",
"W. c #FEFEFE",
"Q. c #FFFFFE",
"!. c white",
/* pixels */
"                                                                ",
"                      . . . . . . . . . .                       ",
"                  . . . . . . . . . . . . . .                   ",
"              . . . . . . . . . . . . . . . . . .               ",
"            9 . . . . . . . . . . . . . . . . . . 0             ",
"          9 . . . . . . . . . . . . . . . . . . . . c           ",
"        - . . . . . . . . . . . . . . . . . . . . . . 2         ",
"      . . . . . . . . . . . . . . . . . . . . . . . . . .       ",
"      . . . . . . . . . . . . . . . . . . . . . . . . . .       ",
"    . . . . . . . . . . . . . . : 7 6 * . . . . . . . . . .     ",
"    . . . . . . . . . . . . . @ D ,.*.i . . . . . . . . . .     ",
"  . . . . . . . . . . . . . . . L t.5.j . . . . . . 1 - . .     ",
"  . . . A g.h.B . . . . * U =.l H 9.3.g . . . ^ j.c.} 1 . . .   ",
"  . . . ..U.!.x.c . . . ; :.y.W G 8.3.g . . _ Z.!.C._ . . . .   ",
"  . . . } K.!.!.a.2 . b z -.t.T G 7.3.g . ~ C.!.C.A . . . . .   ",
"  . . . } K.!.!.U.` Z f.( %.w.U G 7.<.p Q Z.!.n.~ . . . . . .   ",
"  . . . } U.K.H.!.b.B.S.( #.w.T G 7.>.s i.!.!.g.1 . . . . . .   ",
"  . . . } R.M.@.m.!.!.N.C $.w.T G 7.1.s n l.R.G.o.1 . . . . .   ",
"  . . . | !.D.M ] H.!.s.q -.u.R H 0.5.k . 0 l.!.U.+.2 . . . .   ",
"  . . . } H.F.V . d.v.m . -.q.U G 6.1.k . . y z.U.H.} - . . .   ",
"  - . . M o.[ t . v r . * S E d 7 L J 5 . . . 0 o.p.' 2 . .     ",
"    . . . . . . . . . . . . . . . . . . . . . . . . . . . .     ",
"    . . . . . . . . . . . . . . . . . . . . . . . . . . . .     ",
"      . . . . . . . . . . . . . . . . . . . . . . . . . .       ",
"      . . . . . . . . . . . . . . . . . . . . . . . . .         ",
"        . . . . . . . . . . . . . . . . . . . . . . . .         ",
"          . . . . . . . . . . . . . . . . . . . . . .           ",
"            . . . . . . . . . . . . . . . . . . . .             ",
"              . . . . . . . . . . . . . . . . .                 ",
"                  . . . . . . . . . . . . . .                   ",
"                      . . . . . . . . .                         ",
"                                                                "
};
